<?xml version="1.0" encoding="UTF-8"?>
<svg id="Layer_1" data-name="Layer 1" xmlns="http://www.w3.org/2000/svg" viewBox="0 0 100 100">
  <defs>
    <style>
      .cls-1 {
        fill: #fff;
        stroke-width: 0px;
      }
    </style>
  </defs>
  <path class="cls-1" d="M48.93.75l-7.66,20.32c-.28.75.27,1.55,1.07,1.55h15.31c.8,0,1.35-.8,1.07-1.55L51.07.75c-.37-.99-1.77-.99-2.14,0Z"/>
  <path class="cls-1" d="M99.25,48.93l-20.32-7.66c-.75-.28-1.55.27-1.55,1.07v15.31c0,.8.8,1.35,1.55,1.07l20.32-7.66c.99-.37.99-1.77,0-2.14Z"/>
  <path class="cls-1" d="M.75,51.07l20.32,7.66c.75.28,1.55-.27,1.55-1.07v-15.31c0-.8-.8-1.35-1.55-1.07L.75,48.93c-.99.37-.99,1.77,0,2.14Z"/>
  <path class="cls-1" d="M51.07,99.25l7.66-20.32c.28-.75-.27-1.55-1.07-1.55h-15.31c-.8,0-1.35.8-1.07,1.55l7.66,20.32c.37.99,1.77.99,2.14,0Z"/>
  <path class="cls-1" d="M14.41,15.93l8.96,19.78c.33.73,1.29.9,1.85.34l10.83-10.83c.57-.57.39-1.52-.34-1.85L15.93,14.41c-.96-.44-1.95.55-1.52,1.52Z"/>
  <path class="cls-1" d="M84.07,14.41l-19.78,8.96c-.73.33-.9,1.29-.34,1.85l10.83,10.83c.57.57,1.52.39,1.85-.34l8.96-19.78c.44-.96-.55-1.95-1.52-1.52Z"/>
  <path class="cls-1" d="M15.93,85.59l19.78-8.96c.73-.33.9-1.29.34-1.85l-10.83-10.83c-.57-.57-1.52-.39-1.85.34l-8.96,19.78c-.44.96.55,1.95,1.52,1.52Z"/>
  <path class="cls-1" d="M85.59,84.07l-8.96-19.78c-.33-.73-1.29-.9-1.85-.34l-10.83,10.83c-.57.57-.39,1.52.34,1.85l19.78,8.96c.96.44,1.95-.55,1.52-1.52Z"/>
  <circle class="cls-1" cx="50" cy="50" r="24.06"/>
</svg>