<?xml version="1.0" encoding="UTF-8"?>
<svg id="Layer_1" data-name="Layer 1" xmlns="http://www.w3.org/2000/svg" viewBox="0 0 100 100">
  <defs>
    <style>
      .cls-1 {
        fill: red;
        stroke-width: 0px;
      }
    </style>
  </defs>
  <path class="cls-1" d="M72.64,20.62l-7.08,44.82c-.11.83-.17,1.51-.17,2.04,0,1.59.72,2.38,2.15,2.38,3.29,0,6.95-2.49,10.99-7.48,4.04-4.99,6.06-11.82,6.06-20.51,0-9.86-2.85-17.7-8.55-23.51-5.71-5.82-13.37-8.73-23-8.73-11.07,0-20.11,3.82-27.11,11.47-7.01,7.65-10.51,17.59-10.51,29.83s3.39,21.42,10.17,28.67c6.78,7.25,15.67,10.88,26.66,10.88s20.51-3.51,29.35-10.54h12.75c-4.76,6.08-10.98,10.94-18.67,14.59-7.68,3.65-15.42,5.47-23.2,5.47-13.26,0-24.37-4.69-33.34-14.08-8.97-9.39-13.46-21.05-13.46-34.99s4.17-25.77,12.52-35.84C26.53,5.03,38.15,0,53.03,0c12.73,0,22.79,3.98,30.2,11.93,7.4,7.95,11.1,17.93,11.1,29.94,0,7.25-1.55,13.72-4.65,19.41-3.1,5.68-7.17,10.11-12.21,13.29-5.04,3.17-9.6,4.76-13.68,4.76-4.57,0-7.5-2.23-8.78-6.69-2.42,2.34-4.65,4.04-6.68,5.1-2.04,1.06-4.34,1.59-6.91,1.59-5.4,0-9.82-2.25-13.26-6.74-3.44-4.49-5.16-10.37-5.16-17.62,0-9.33,2.35-17.71,7.05-25.16,4.7-7.44,10.43-11.16,17.2-11.16,2.83,0,5.26.67,7.28,2.01,2.02,1.34,4.03,3.47,6.03,6.37l1.08-6.4h10.99ZM49.18,28.39c-3.97,0-7.23,2.89-9.8,8.67-2.57,5.78-3.85,12.8-3.85,21.08,0,3.85.67,6.86,2.01,9.04,1.34,2.17,3.26,3.26,5.75,3.26,2,0,4.04-.96,6.12-2.89,2.08-1.93,3.8-5.78,5.16-11.56s2.04-11.44,2.04-17c0-7.06-2.47-10.59-7.42-10.59Z"/>
</svg>