<?xml version="1.0" encoding="UTF-8"?>
<svg id="Layer_1" data-name="Layer 1" xmlns="http://www.w3.org/2000/svg" viewBox="0 0 100 100">
  <defs>
    <style>
      .cls-1 {
        fill: red;
        stroke-width: 0px;
      }
    </style>
  </defs>
  <path class="cls-1" d="M50,1.23C22.39,1.23,0,23.62,0,51.23,0,73.33,14.33,92.07,34.19,98.68c2.5.46,3.42-1.08,3.42-2.41,0-1.19-.05-5.13-.07-9.31-13.91,3.02-16.85-5.9-16.85-5.9-2.27-5.78-5.55-7.32-5.55-7.32-4.54-3.1.34-3.04.34-3.04,5.02.35,7.67,5.15,7.67,5.15,4.46,7.65,11.7,5.43,14.55,4.16.45-3.23,1.74-5.44,3.18-6.69-11.11-1.26-22.78-5.55-22.78-24.71,0-5.46,1.95-9.92,5.15-13.42-.52-1.26-2.23-6.34.49-13.23,0,0,4.2-1.35,13.75,5.12,3.99-1.11,8.26-1.66,12.52-1.68,4.25.02,8.53.57,12.52,1.68,9.55-6.47,13.74-5.12,13.74-5.12,2.72,6.89,1.01,11.97.49,13.23,3.2,3.5,5.14,7.96,5.14,13.42,0,19.2-11.7,23.43-22.83,24.67,1.79,1.55,3.39,4.59,3.39,9.26,0,6.69-.06,12.07-.06,13.72,0,1.33.9,2.89,3.43,2.4,19.86-6.62,34.16-25.35,34.16-47.44C100,23.62,77.61,1.23,50,1.23"/>
</svg>