<?xml version="1.0" encoding="UTF-8"?>
<svg id="Layer_1" data-name="Layer 1" xmlns="http://www.w3.org/2000/svg" viewBox="0 0 100 100">
  <defs>
    <style>
      .cls-1 {
        fill: red;
        stroke-width: 0px;
      }
    </style>
  </defs>
  <path class="cls-1" d="M89.49,0H10.51C4.71,0,0,4.71,0,10.51v78.98c0,5.8,4.71,10.51,10.51,10.51h78.98c5.8,0,10.51-4.71,10.51-10.51V10.51c0-5.8-4.71-10.51-10.51-10.51ZM30.19,86.09h-14.89v-48.18h14.89v48.18ZM22.75,31.66c-4.92,0-8.91-3.98-8.91-8.9s3.99-8.91,8.91-8.91,8.91,3.99,8.91,8.91-3.99,8.9-8.91,8.9ZM86.17,86.09h-14.87v-24.09s.69-12-8.3-12-8.94,11.35-8.94,11.35v24.74h-14.29v-48.18h14.29v6.52s4.15-7.03,11.81-7.7c7.66-.67,13.6,1.63,16.92,6.42,3.32,4.79,3.25,10.66,3.38,14.11.13,3.44,0,28.83,0,28.83Z"/>
</svg>