<?xml version="1.0" encoding="UTF-8"?>
<svg id="Layer_1" data-name="Layer 1" xmlns="http://www.w3.org/2000/svg" viewBox="0 0 100 100">
  <defs>
    <style>
      .cls-1 {
        fill: red;
        stroke-width: 0px;
      }
    </style>
  </defs>
  <path class="cls-1" d="M66.74,0h-33.48c-6.64,0-12.03,5.38-12.03,12.02v75.96c0,6.64,5.39,12.02,12.03,12.02h33.48c6.64,0,12.03-5.38,12.03-12.02V12.02c0-6.64-5.39-12.02-12.03-12.02ZM50,95.28c-2.26,0-4.09-1.83-4.09-4.09s1.83-4.08,4.09-4.08,4.09,1.83,4.09,4.08-1.83,4.09-4.09,4.09ZM73.49,73.06c0,4.38-3.54,7.92-7.92,7.92h-31.14c-4.38,0-7.92-3.54-7.92-7.92V12.64c0-4.37,3.54-7.92,7.92-7.92h31.14c4.38,0,7.92,3.55,7.92,7.92v60.42Z"/>
</svg>