<?xml version="1.0" encoding="UTF-8"?>
<svg id="Layer_1" data-name="Layer 1" xmlns="http://www.w3.org/2000/svg" viewBox="0 0 100 100">
  <defs>
    <style>
      .cls-1 {
        fill: #14c905;
        stroke-width: 0px;
      }
    </style>
  </defs>
  <path class="cls-1" d="M59.41,74.62l-9.41,9.41-9.41-9.41c5.19-5.19,13.63-5.19,18.82,0Z"/>
  <path class="cls-1" d="M71.96,62.08l-6.27,6.27c-8.65-8.65-22.72-8.65-31.37,0l-6.27-6.27c12.11-12.11,31.81-12.11,43.92,0Z"/>
  <path class="cls-1" d="M84.51,49.53l-6.27,6.27c-15.57-15.57-40.89-15.57-56.47,0l-6.27-6.27c19.02-19.02,49.99-19.02,69.01,0Z"/>
  <path class="cls-1" d="M97.06,36.98l-6.27,6.27c-22.49-22.49-59.08-22.49-81.56,0l-6.27-6.27c25.95-25.95,68.16-25.95,94.11,0Z"/>
</svg>